<svg width="20" height="20" viewBox="0 0 20 20" fill="none" xmlns="http://www.w3.org/2000/svg">
<path d="M14.8415 4.5763V5.19297L11.8915 3.48464C10.7749 2.84297 9.21654 2.84297 8.1082 3.48464L5.1582 5.2013V4.5763C5.1582 2.7013 6.1832 1.66797 8.0582 1.66797H11.9415C13.8165 1.66797 14.8415 2.7013 14.8415 4.5763Z" fill="#000080"/>
<path d="M14.867 6.64089L14.7503 6.58255L13.617 5.93255L11.267 4.57422C10.5503 4.15755 9.45033 4.15755 8.73366 4.57422L6.38366 5.92422L5.25033 6.59089L5.10033 6.66589C3.64199 7.64922 3.54199 7.83255 3.54199 9.40755V13.1742C3.54199 14.7492 3.64199 14.9326 5.13366 15.9409L8.73366 18.0159C9.09199 18.2326 9.54199 18.3242 10.0003 18.3242C10.4503 18.3242 10.9087 18.2242 11.267 18.0159L14.9003 15.9159C16.367 14.9326 16.4587 14.7576 16.4587 13.1742V9.40755C16.4587 7.83255 16.3587 7.64922 14.867 6.64089ZM12.3253 11.2492L11.817 11.8742C11.7337 11.9659 11.6753 12.1409 11.6837 12.2659L11.7337 13.0659C11.767 13.5576 11.417 13.8076 10.9587 13.6326L10.217 13.3326C10.1003 13.2909 9.90866 13.2909 9.79199 13.3326L9.05033 13.6242C8.59199 13.8076 8.24199 13.5492 8.27533 13.0576L8.32533 12.2576C8.33366 12.1326 8.27533 11.9576 8.19199 11.8659L7.67533 11.2492C7.35866 10.8742 7.50033 10.4576 7.97533 10.3326L8.75033 10.1326C8.87533 10.0992 9.01699 9.98255 9.08366 9.88255L9.51699 9.21589C9.78366 8.79922 10.2087 8.79922 10.4837 9.21589L10.917 9.88255C10.9837 9.99089 11.1337 10.0992 11.2503 10.1326L12.0253 10.3326C12.5003 10.4576 12.642 10.8742 12.3253 11.2492Z" fill="#000080"/>
</svg>
