<svg width="32" height="32" viewBox="0 0 32 32" fill="none" xmlns="http://www.w3.org/2000/svg">
<path d="M10.0754 25.5763H7.57012C3.73399 25.3023 2.01172 22.3534 2.01172 19.7308C2.01172 17.1081 3.73401 14.1462 7.5049 13.8853C8.03987 13.8331 8.50958 14.2506 8.54873 14.7986C8.58787 15.3336 8.18344 15.8033 7.63543 15.8425C5.1041 16.0251 3.96893 17.9302 3.96893 19.7438C3.96893 21.5575 5.1041 23.4625 7.63543 23.6452H10.0754C10.6104 23.6452 11.054 24.0888 11.054 24.6238C11.054 25.1588 10.6104 25.5763 10.0754 25.5763Z" fill="#292D32"/>
<path d="M22.0926 25.5769C22.0665 25.5769 22.0535 25.5769 22.0274 25.5769C21.4924 25.5769 20.9966 25.1332 20.9966 24.5983C20.9966 24.0372 21.4142 23.6197 21.9622 23.6197C23.5671 23.6197 25.0024 23.0586 26.1245 22.0539C28.16 20.2794 28.2905 17.7219 27.7425 15.9213C27.1945 14.1337 25.6678 12.0852 23.006 11.759C22.5754 11.7068 22.2362 11.3806 22.1579 10.95C21.6359 7.81848 19.9528 5.6525 17.3954 4.86961C14.7597 4.04759 11.6803 4.85656 9.76222 6.86596C7.89635 8.81012 7.46577 11.5372 8.54876 14.5382C8.73143 15.0471 8.47053 15.6082 7.96166 15.7908C7.45279 15.9735 6.89169 15.7125 6.70902 15.2037C5.39116 11.5241 5.99139 8.00115 8.35308 5.52202C10.767 2.99069 14.6422 1.98598 17.9695 3.00373C21.0227 3.94319 23.1756 6.46147 23.9585 9.95835C26.6203 10.5586 28.7602 12.581 29.6083 15.3733C30.5347 18.4135 29.6997 21.545 27.4163 23.5283C25.9679 24.8331 24.0759 25.5769 22.0926 25.5769Z" fill="#292D32"/>
<path d="M15.9987 29.4135C13.3761 29.4135 10.9231 28.0173 9.5791 25.76C9.43558 25.5382 9.29205 25.2772 9.17462 24.9902C8.73098 24.0638 8.49609 23.0069 8.49609 21.9108C8.49609 17.7746 11.8625 14.4082 15.9987 14.4082C20.135 14.4082 23.5014 17.7746 23.5014 21.9108C23.5014 23.0199 23.2665 24.0638 22.7968 25.0293C22.6924 25.2772 22.5489 25.5382 22.3923 25.7861C21.0744 28.0173 18.6214 29.4135 15.9987 29.4135ZM15.9987 16.3654C12.9455 16.3654 10.4533 18.8576 10.4533 21.9108C10.4533 22.7198 10.6229 23.4766 10.9491 24.1681C11.0535 24.39 11.1448 24.5726 11.2492 24.7423C12.2409 26.4255 14.0546 27.4563 15.9857 27.4563C17.9168 27.4563 19.7304 26.4255 20.7091 24.7684C20.8265 24.5726 20.9309 24.39 21.0092 24.2073C21.3615 23.4896 21.5311 22.7329 21.5311 21.9239C21.5441 18.8576 19.052 16.3654 15.9987 16.3654Z" fill="#292D32"/>
<path d="M15.2557 24.182C15.0077 24.182 14.7598 24.0906 14.5641 23.8949L13.2721 22.603C12.8937 22.2245 12.8937 21.5981 13.2721 21.2197C13.6506 20.8413 14.2769 20.8413 14.6554 21.2197L15.2818 21.8461L17.3697 19.9147C17.7743 19.5494 18.3876 19.5754 18.753 19.9669C19.1184 20.3584 19.0923 20.9848 18.7008 21.3502L15.9212 23.921C15.7255 24.0906 15.4906 24.182 15.2557 24.182Z" fill="#292D32"/>
</svg>
