<svg width="96" height="96" viewBox="0 0 96 96" fill="none" xmlns="http://www.w3.org/2000/svg">
<path d="M96 0H0V96H96V0Z" fill="#DBDBDB"/>
<path d="M76.2719 91.9144L70.0238 88.4545C70.0238 88.4545 66.6915 87.8779 65.5808 86.7246C64.4702 85.5713 64.5055 87.334 64.5055 87.334L64.1923 86.1479C64.1923 86.1479 60.0164 84.7283 58.8198 83.6445C55.6806 80.8008 55.549 74.9142 56.0784 70.1483C58.3128 68.1526 61.1302 65.2894 61.2137 63.4746C61.3525 60.4557 62.3017 59.4716 62.3017 59.4716C62.3017 59.4716 64.5121 59.0868 65.6839 54.6219C66.0541 53.2113 66.2401 49.2467 64.5601 49.9187C64.9898 47.8185 65.595 45.2528 66.4193 40.5814C67.0003 37.2886 66.9011 34.4455 66.2967 32.0019C67.0946 34.1329 67.2961 35.9028 67.2961 35.9028C67.2961 32.0484 65.9044 29.3738 64.4657 27.6327C62.7397 24.8556 60.2098 22.8365 57.3937 21.4288C60.2715 22.1887 61.3441 23.0388 61.3441 23.0388C59.4619 21.2612 56.2702 20.3948 53.7534 19.9744C51.158 19.1666 48.5091 18.7802 46.1541 18.7172C45.2997 18.6944 44.515 18.7202 43.7933 18.7854C46.9143 17.6799 49.2481 17.8548 49.2481 17.8548C46.3378 17.5453 43.6275 18.3939 42.0698 19.0355C40.629 19.332 39.5104 19.8042 38.6429 20.3411C39.8828 18.3375 40.8962 17.9509 40.8962 17.9509C39.6998 18.1503 38.5035 19.6698 37.6297 21.0847C36.0433 22.4653 35.7401 23.9348 35.7401 23.9348C35.7401 23.9348 35.3653 23.8066 34.7525 23.7542C33.5146 23.5067 30.8878 23.1111 29.6642 23.9029C29.6642 23.9029 31.5743 23.5921 33.2189 23.8164C31.907 24.0337 30.2651 24.7354 28.7509 26.6115C27.7861 27.4557 26.1575 29.0604 25.8242 30.5269C25.8242 30.5269 26.4623 29.7981 27.2053 29.0947C27.09 29.3475 26.9904 29.6147 26.906 29.8953C26.4821 30.2694 26.1455 30.7848 26.1121 31.4869C26.1121 31.4869 26.3524 31.0673 26.7312 30.5953C26.6263 31.1106 26.5626 31.661 26.5352 32.2398C26.1179 33.244 25.8053 34.7 25.9201 36.7669C25.9201 36.7669 25.9957 35.0681 26.5256 33.3748C26.5456 34.1131 26.6137 34.8856 26.7208 35.6799C26.57 36.5368 26.4812 37.6874 26.5921 39.1669C26.5921 39.1669 26.6731 37.8749 26.887 36.7572C27.6353 41.088 29.3808 45.8803 30.755 49.2245C29.9158 48.9718 28.429 49.0092 28.7033 52.1213C28.9809 55.2715 28.1694 53.2143 30.5082 58.6842C31.5015 61.0073 32.0765 60.3742 32.3173 59.8515C32.0695 60.866 31.9804 63.9519 37.2347 69.5357C37.3543 73.2263 37.1591 78.2389 35.5099 80.8685C34.0187 83.2462 27.6464 86.1789 27.6464 86.1789L26.1511 87.5897C26.1511 87.5897 26.1511 87.5897 25.318 87.3013C24.485 87.013 22.819 89.0313 22.819 89.0313L17.9597 90.1846L11.5732 95.8069H80.1601C80.1601 95.8069 80.1601 95.8069 80.1601 94.9419C80.1601 94.0768 76.2719 91.9144 76.2719 91.9144Z" fill="#BABAB9"/>
</svg>
