<svg width="20" height="20" viewBox="0 0 20 20" fill="none" xmlns="http://www.w3.org/2000/svg">
<path d="M16.2474 10.4193C16.2474 9.26927 17.1807 8.33594 18.3307 8.33594V7.5026C18.3307 4.16927 17.4974 3.33594 14.1641 3.33594H5.83073C2.4974 3.33594 1.66406 4.16927 1.66406 7.5026V7.91927C2.81406 7.91927 3.7474 8.8526 3.7474 10.0026C3.7474 11.1526 2.81406 12.0859 1.66406 12.0859V12.5026C1.66406 15.8359 2.4974 16.6693 5.83073 16.6693H14.1641C17.4974 16.6693 18.3307 15.8359 18.3307 12.5026C17.1807 12.5026 16.2474 11.5693 16.2474 10.4193Z" stroke="white" stroke-width="1.5" stroke-linecap="round" stroke-linejoin="round"/>
<path d="M7.5 12.2891L12.5 7.28906" stroke="white" stroke-width="1.5" stroke-linecap="round" stroke-linejoin="round"/>
<path d="M12.498 12.2917H12.5055" stroke="white" stroke-width="2" stroke-linecap="round" stroke-linejoin="round"/>
<path d="M7.49803 7.70573H7.50551" stroke="white" stroke-width="2" stroke-linecap="round" stroke-linejoin="round"/>
</svg>
