<svg width="24" height="24" viewBox="0 0 24 24" fill="none" xmlns="http://www.w3.org/2000/svg">
<path d="M17.8104 5.49V6.23L14.2704 4.18C12.9304 3.41 11.0604 3.41 9.73043 4.18L6.19043 6.24V5.49C6.19043 3.24 7.42043 2 9.67043 2H14.3304C16.5804 2 17.8104 3.24 17.8104 5.49Z" fill="#000080"/>
<path d="M17.84 7.97219L17.7 7.90219L16.34 7.12219L13.52 5.49219C12.66 4.99219 11.34 4.99219 10.48 5.49219L7.66 7.11219L6.3 7.91219L6.12 8.00219C4.37 9.18219 4.25 9.40219 4.25 11.2922V15.8122C4.25 17.7022 4.37 17.9222 6.16 19.1322L10.48 21.6222C10.91 21.8822 11.45 21.9922 12 21.9922C12.54 21.9922 13.09 21.8722 13.52 21.6222L17.88 19.1022C19.64 17.9222 19.75 17.7122 19.75 15.8122V11.2922C19.75 9.40219 19.63 9.18219 17.84 7.97219ZM14.79 13.5022L14.18 14.2522C14.08 14.3622 14.01 14.5722 14.02 14.7222L14.08 15.6822C14.12 16.2722 13.7 16.5722 13.15 16.3622L12.26 16.0022C12.12 15.9522 11.89 15.9522 11.75 16.0022L10.86 16.3522C10.31 16.5722 9.89 16.2622 9.93 15.6722L9.99 14.7122C10 14.5622 9.93 14.3522 9.83 14.2422L9.21 13.5022C8.83 13.0522 9 12.5522 9.57 12.4022L10.5 12.1622C10.65 12.1222 10.82 11.9822 10.9 11.8622L11.42 11.0622C11.74 10.5622 12.25 10.5622 12.58 11.0622L13.1 11.8622C13.18 11.9922 13.36 12.1222 13.5 12.1622L14.43 12.4022C15 12.5522 15.17 13.0522 14.79 13.5022Z" fill="#000080"/>
</svg>
