<svg width="24" height="24" viewBox="0 0 24 24" fill="none" xmlns="http://www.w3.org/2000/svg">
<path d="M16.7502 3.56V2C16.7502 1.59 16.4102 1.25 16.0002 1.25C15.5902 1.25 15.2502 1.59 15.2502 2V3.5H8.75023V2C8.75023 1.59 8.41023 1.25 8.00023 1.25C7.59023 1.25 7.25023 1.59 7.25023 2V3.56C4.55023 3.81 3.24023 5.42 3.04023 7.81C3.02023 8.1 3.26023 8.34 3.54023 8.34H20.4602C20.7502 8.34 20.9902 8.09 20.9602 7.81C20.7602 5.42 19.4502 3.81 16.7502 3.56Z" fill="#000080"/>
<path d="M20 9.84375H4C3.45 9.84375 3 10.2937 3 10.8438V17.0037C3 20.0037 4.5 22.0037 8 22.0037H16C19.5 22.0037 21 20.0037 21 17.0037V10.8438C21 10.2937 20.55 9.84375 20 9.84375ZM9.21 18.2137C9.16 18.2537 9.11 18.3037 9.06 18.3337C9 18.3737 8.94 18.4037 8.88 18.4237C8.82 18.4537 8.76 18.4737 8.7 18.4837C8.63 18.4937 8.57 18.5037 8.5 18.5037C8.37 18.5037 8.24 18.4737 8.12 18.4237C7.99 18.3737 7.89 18.3037 7.79 18.2137C7.61 18.0237 7.5 17.7637 7.5 17.5037C7.5 17.2437 7.61 16.9838 7.79 16.7938C7.89 16.7038 7.99 16.6337 8.12 16.5837C8.3 16.5037 8.5 16.4838 8.7 16.5238C8.76 16.5338 8.82 16.5537 8.88 16.5837C8.94 16.6037 9 16.6337 9.06 16.6737C9.11 16.7137 9.16 16.7538 9.21 16.7938C9.39 16.9838 9.5 17.2437 9.5 17.5037C9.5 17.7637 9.39 18.0237 9.21 18.2137ZM9.21 14.7137C9.02 14.8937 8.76 15.0037 8.5 15.0037C8.24 15.0037 7.98 14.8937 7.79 14.7137C7.61 14.5237 7.5 14.2637 7.5 14.0037C7.5 13.7437 7.61 13.4837 7.79 13.2937C8.07 13.0137 8.51 12.9237 8.88 13.0837C9.01 13.1337 9.12 13.2037 9.21 13.2937C9.39 13.4837 9.5 13.7437 9.5 14.0037C9.5 14.2637 9.39 14.5237 9.21 14.7137ZM12.71 18.2137C12.52 18.3937 12.26 18.5037 12 18.5037C11.74 18.5037 11.48 18.3937 11.29 18.2137C11.11 18.0237 11 17.7637 11 17.5037C11 17.2437 11.11 16.9838 11.29 16.7938C11.66 16.4238 12.34 16.4238 12.71 16.7938C12.89 16.9838 13 17.2437 13 17.5037C13 17.7637 12.89 18.0237 12.71 18.2137ZM12.71 14.7137C12.66 14.7537 12.61 14.7937 12.56 14.8337C12.5 14.8737 12.44 14.9037 12.38 14.9237C12.32 14.9537 12.26 14.9737 12.2 14.9837C12.13 14.9937 12.07 15.0037 12 15.0037C11.74 15.0037 11.48 14.8937 11.29 14.7137C11.11 14.5237 11 14.2637 11 14.0037C11 13.7437 11.11 13.4837 11.29 13.2937C11.38 13.2037 11.49 13.1337 11.62 13.0837C11.99 12.9237 12.43 13.0137 12.71 13.2937C12.89 13.4837 13 13.7437 13 14.0037C13 14.2637 12.89 14.5237 12.71 14.7137ZM16.21 18.2137C16.02 18.3937 15.76 18.5037 15.5 18.5037C15.24 18.5037 14.98 18.3937 14.79 18.2137C14.61 18.0237 14.5 17.7637 14.5 17.5037C14.5 17.2437 14.61 16.9838 14.79 16.7938C15.16 16.4238 15.84 16.4238 16.21 16.7938C16.39 16.9838 16.5 17.2437 16.5 17.5037C16.5 17.7637 16.39 18.0237 16.21 18.2137ZM16.21 14.7137C16.16 14.7537 16.11 14.7937 16.06 14.8337C16 14.8737 15.94 14.9037 15.88 14.9237C15.82 14.9537 15.76 14.9737 15.7 14.9837C15.63 14.9937 15.56 15.0037 15.5 15.0037C15.24 15.0037 14.98 14.8937 14.79 14.7137C14.61 14.5237 14.5 14.2637 14.5 14.0037C14.5 13.7437 14.61 13.4837 14.79 13.2937C14.89 13.2037 14.99 13.1337 15.12 13.0837C15.3 13.0037 15.5 12.9838 15.7 13.0238C15.76 13.0338 15.82 13.0537 15.88 13.0837C15.94 13.1037 16 13.1337 16.06 13.1737C16.11 13.2137 16.16 13.2537 16.21 13.2937C16.39 13.4837 16.5 13.7437 16.5 14.0037C16.5 14.2637 16.39 14.5237 16.21 14.7137Z" fill="#000080"/>
</svg>
