<svg width="24" height="24" viewBox="0 0 24 24" fill="none" xmlns="http://www.w3.org/2000/svg">
<path d="M20.0402 6.81774L14.2802 2.78774C12.7102 1.68774 10.3002 1.74774 8.79023 2.91774L3.78023 6.82774C2.78023 7.60774 1.99023 9.20774 1.99023 10.4677V17.3677C1.99023 19.9177 4.06023 21.9977 6.61023 21.9977H17.3902C19.9402 21.9977 22.0102 19.9277 22.0102 17.3777V10.5977C22.0102 9.24774 21.1402 7.58774 20.0402 6.81774ZM12.7502 17.9977C12.7502 18.4077 12.4102 18.7477 12.0002 18.7477C11.5902 18.7477 11.2502 18.4077 11.2502 17.9977V14.9977C11.2502 14.5877 11.5902 14.2477 12.0002 14.2477C12.4102 14.2477 12.7502 14.5877 12.7502 14.9977V17.9977Z" fill="#000080"/>
</svg>
