<svg width="24" height="24" viewBox="0 0 24 24" fill="none" xmlns="http://www.w3.org/2000/svg">
<path d="M15.2602 21.9984C15.2002 21.9984 15.1302 21.9884 15.0702 21.9684C13.0602 21.3984 10.9502 21.3984 8.94015 21.9684C8.57015 22.0684 8.18015 21.8584 8.08015 21.4884C7.97015 21.1184 8.19015 20.7284 8.56015 20.6284C10.8202 19.9884 13.2002 19.9884 15.4602 20.6284C15.8302 20.7384 16.0502 21.1184 15.9402 21.4884C15.8402 21.7984 15.5602 21.9984 15.2602 21.9984Z" fill="#000080"/>
<path d="M19.2097 6.35757C18.1697 4.25757 16.1597 2.70757 13.8297 2.19757C11.3897 1.65757 8.88973 2.23757 6.97973 3.77757C5.05973 5.30757 3.96973 7.59757 3.96973 10.0476C3.96973 12.6376 5.51973 15.3476 7.85973 16.9176V17.7476C7.84973 18.0276 7.83973 18.4576 8.17973 18.8076C8.52973 19.1676 9.04973 19.2076 9.45973 19.2076H14.5897C15.1297 19.2076 15.5397 19.0576 15.8197 18.7776C16.1997 18.3876 16.1897 17.8876 16.1797 17.6176V16.9176C19.2797 14.8276 21.2297 10.4176 19.2097 6.35757ZM13.7197 11.6176L12.6497 13.4776C12.5097 13.7176 12.2597 13.8576 11.9997 13.8576C11.8697 13.8576 11.7397 13.8276 11.6297 13.7576C11.2697 13.5476 11.1497 13.0876 11.3497 12.7376L12.1997 11.2576H11.3597C10.8597 11.2576 10.4497 11.0376 10.2297 10.6676C10.0097 10.2876 10.0297 9.82757 10.2797 9.38757L11.3497 7.52757C11.5597 7.16757 12.0197 7.04757 12.3697 7.24757C12.7297 7.45757 12.8497 7.91757 12.6497 8.26757L11.7997 9.74757H12.6397C13.1397 9.74757 13.5497 9.96757 13.7697 10.3376C13.9897 10.7176 13.9697 11.1876 13.7197 11.6176Z" fill="#000080"/>
</svg>
