<svg width="24" height="24" viewBox="0 0 24 24" fill="none" xmlns="http://www.w3.org/2000/svg">
<path d="M16.8301 15.6402C17.5001 15.2002 18.3801 15.6802 18.3801 16.4802V17.7702C18.3801 19.0402 17.3901 20.4002 16.2001 20.8002L13.0101 21.8602C12.4501 22.0502 11.5401 22.0502 10.9901 21.8602L7.80012 20.8002C6.60012 20.4002 5.62012 19.0402 5.62012 17.7702V16.4702C5.62012 15.6802 6.50012 15.2002 7.16012 15.6302L9.22012 16.9702C10.0101 17.5002 11.0101 17.7602 12.0101 17.7602C13.0101 17.7602 14.0101 17.5002 14.8001 16.9702L16.8301 15.6402Z" fill="#000080"/>
<path d="M19.9795 6.4625L13.9895 2.5325C12.9095 1.8225 11.1295 1.8225 10.0495 2.5325L4.02953 6.4625C2.09953 7.7125 2.09953 10.5425 4.02953 11.8025L5.62953 12.8425L10.0495 15.7225C11.1295 16.4325 12.9095 16.4325 13.9895 15.7225L18.3795 12.8425L19.7495 11.9425V15.0025C19.7495 15.4125 20.0895 15.7525 20.4995 15.7525C20.9095 15.7525 21.2495 15.4125 21.2495 15.0025V10.0825C21.6495 8.7925 21.2395 7.2925 19.9795 6.4625Z" fill="#000080"/>
</svg>
