<svg width="17" height="17" viewBox="0 0 17 17" fill="none" xmlns="http://www.w3.org/2000/svg">
<path d="M6.42781 1.54297C4.59797 1.54297 3.11035 3.03059 3.11035 4.86043C3.11035 6.65535 4.51416 8.10805 6.344 8.17091C6.39988 8.16392 6.45575 8.16392 6.49765 8.17091C6.51162 8.17091 6.51861 8.17091 6.53257 8.17091C6.53956 8.17091 6.53956 8.17091 6.54654 8.17091C8.33448 8.10805 9.73829 6.65535 9.74527 4.86043C9.74527 3.03059 8.25765 1.54297 6.42781 1.54297Z" fill="white"/>
<path d="M9.97648 10.029C8.02791 8.72993 4.85013 8.72993 2.88759 10.029C2.00061 10.6226 1.51172 11.4258 1.51172 12.2848C1.51172 13.1439 2.00061 13.9401 2.88061 14.5268C3.85839 15.1833 5.14347 15.5115 6.42854 15.5115C7.71362 15.5115 8.9987 15.1833 9.97648 14.5268C10.8565 13.9331 11.3454 13.1369 11.3454 12.2709C11.3384 11.4118 10.8565 10.6156 9.97648 10.029Z" fill="white"/>
<path d="M14.1037 5.26977C14.2155 6.62469 13.2517 7.81199 11.9177 7.97263C11.9107 7.97263 11.9107 7.97263 11.9037 7.97263H11.8828C11.8409 7.97263 11.799 7.97263 11.7641 7.9866C11.0866 8.02152 10.465 7.80501 9.99707 7.40691C10.7164 6.76437 11.1285 5.80057 11.0447 4.75295C10.9958 4.18723 10.8002 3.67041 10.5069 3.23041C10.7723 3.09771 11.0796 3.0139 11.3939 2.98596C12.7628 2.86723 13.985 3.88691 14.1037 5.26977Z" fill="white"/>
<path d="M15.5004 11.7318C15.4445 12.4092 15.0115 12.9959 14.2852 13.394C13.5867 13.7781 12.7067 13.9597 11.8337 13.9388C12.3366 13.4848 12.6299 12.9191 12.6858 12.3185C12.7556 11.4524 12.3436 10.6213 11.5194 9.95782C11.0515 9.58766 10.5067 9.29432 9.91309 9.07782C11.4566 8.63083 13.3982 8.93115 14.5925 9.89496C15.235 10.4118 15.5632 11.0613 15.5004 11.7318Z" fill="white"/>
</svg>
