<svg width="24" height="24" viewBox="0 0 24 24" fill="none" xmlns="http://www.w3.org/2000/svg">
<path fill-rule="evenodd" clip-rule="evenodd" d="M4.28625 15.9247C4.28625 15.9487 4.28625 15.9745 4.28625 15.9994C4.28625 20.4143 7.74298 23.9991 12.0002 23.9991C16.2575 23.9991 19.7142 20.4143 19.7142 15.9994C19.7142 15.9132 19.7125 15.827 19.71 15.7398C21.1808 15.2865 22.4844 14.2528 23.273 12.7453C24.8526 9.72764 23.7727 5.94734 20.8619 4.30918C19.854 3.7412 18.7577 3.50565 17.6897 3.56342C16.6132 1.44528 14.4687 0 12.0002 0C8.88208 0 6.27989 2.30747 5.69449 5.36335C4.83652 5.26647 3.94341 5.39268 3.09487 5.77489C0.491822 6.94729 -0.70471 10.0912 0.426676 12.7906C1.14493 14.5061 2.63031 15.6323 4.28625 15.9247ZM12.0002 9.77741C15.3113 9.77741 18 12.5658 18 15.9994C18 19.433 15.3113 22.2214 12.0002 22.2214C8.68923 22.2214 6.00047 19.433 6.00047 15.9994C6.00047 12.5658 8.68923 9.77741 12.0002 9.77741ZM11.1431 14.5897V19.5548C11.1431 20.0455 11.5271 20.4437 12.0002 20.4437C12.4734 20.4437 12.8574 20.0455 12.8574 19.5548V14.5897L13.9656 15.739C14.2999 16.0856 14.8433 16.0856 15.1776 15.739C15.5118 15.3923 15.5118 14.8288 15.1776 14.4821L12.6062 11.8156C12.272 11.468 11.7285 11.468 11.3943 11.8156L8.82294 14.4821C8.48866 14.8288 8.48866 15.3923 8.82294 15.739C9.15721 16.0856 9.70062 16.0856 10.0349 15.739L11.1431 14.5897ZM19.4597 13.955C20.4119 13.5977 21.2459 12.892 21.7662 11.8973C22.895 9.74185 22.1227 7.04152 20.0442 5.87178C19.176 5.38291 18.216 5.23802 17.3101 5.39179C16.9141 5.45935 16.5258 5.23269 16.3767 4.84604C15.6798 3.04877 13.9819 1.77771 12.0002 1.77771C9.4632 1.77771 7.39157 3.8603 7.29043 6.46464C7.27929 6.74196 7.14472 6.99707 6.92615 7.15617C6.70759 7.31617 6.42988 7.35973 6.17532 7.27618C5.4142 7.02641 4.56652 7.04951 3.77798 7.40505C2.04233 8.18635 1.24522 10.2823 1.99862 12.0822C2.46574 13.1986 3.42057 13.9399 4.49196 14.1568C5.29507 10.6289 8.3541 7.9997 12.0002 7.9997C15.5761 7.9997 18.588 10.5294 19.4597 13.955Z" fill="#4B4B4B"/>
</svg>
