<svg width="24" height="24" viewBox="0 0 24 24" fill="none" xmlns="http://www.w3.org/2000/svg">
<path d="M4.25977 11.0175V15.9875C4.25977 17.8075 4.25977 17.8075 5.97977 18.9675L10.7098 21.6975C11.4198 22.1075 12.5798 22.1075 13.2898 21.6975L18.0198 18.9675C19.7398 17.8075 19.7398 17.8075 19.7398 15.9875V11.0175C19.7398 9.1975 19.7398 9.1975 18.0198 8.0375L13.2898 5.3075C12.5798 4.8975 11.4198 4.8975 10.7098 5.3075L5.97977 8.0375C4.25977 9.1975 4.25977 9.1975 4.25977 11.0175Z" stroke="white" stroke-width="1.5" stroke-linecap="round" stroke-linejoin="round"/>
<path d="M17.5 7.63V5C17.5 3 16.5 2 14.5 2H9.5C7.5 2 6.5 3 6.5 5V7.56" stroke="white" stroke-width="1.5" stroke-linecap="round" stroke-linejoin="round"/>
<path d="M12.6298 10.9909L13.1998 11.8809C13.2898 12.0209 13.4898 12.1609 13.6398 12.2009L14.6598 12.4609C15.2898 12.6209 15.4598 13.1609 15.0498 13.6609L14.3798 14.4709C14.2798 14.6009 14.1998 14.8309 14.2098 14.9909L14.2698 16.0409C14.3098 16.6909 13.8498 17.0209 13.2498 16.7809L12.2698 16.3909C12.1198 16.3309 11.8698 16.3309 11.7198 16.3909L10.7398 16.7809C10.1398 17.0209 9.67978 16.6809 9.71978 16.0409L9.77978 14.9909C9.78978 14.8309 9.70978 14.5909 9.60978 14.4709L8.93978 13.6609C8.52978 13.1609 8.69978 12.6209 9.32978 12.4609L10.3498 12.2009C10.5098 12.1609 10.7098 12.0109 10.7898 11.8809L11.3598 10.9909C11.7198 10.4509 12.2798 10.4509 12.6298 10.9909Z" stroke="white" stroke-width="1.5" stroke-linecap="round" stroke-linejoin="round"/>
</svg>
